<?xml version="1.0" encoding="utf-8"?>
<!-- Generator: Adobe Illustrator 22.1.0, SVG Export Plug-In . SVG Version: 6.00 Build 0)  -->
<svg version="1.1" id="Layer_1" xmlns="http://www.w3.org/2000/svg" xmlns:xlink="http://www.w3.org/1999/xlink" x="0px" y="0px"
	 viewBox="0 0 595.3 841.9" style="enable-background:new 0 0 595.3 841.9;" xml:space="preserve">
<style type="text/css">
	.st0{fill:none;}
	.st1{fill:#F26122;}
	.st2{font-family:'CiutadellaRoundedW04-Bold';}
	.st3{font-size:900px;}
	.st4{fill:none;stroke:#F26122;stroke-width:16;stroke-linecap:round;stroke-linejoin:round;stroke-miterlimit:10;}
</style>
<g>
	<rect x="12.3" y="171.3" class="st0" width="805.3" height="759.9"/>
	<text transform="matrix(1 0 0 1 12.2675 785.129)" class="st1 st2 st3">d</text>
	<circle class="st1" cx="356.1" cy="104.3" r="62.7"/>
	<rect x="293.6" y="97.5" class="st1" width="125" height="168.9"/>
</g>
<path class="st1" d="M335.7,706.7H111.6c-6.6,0-12-5.4-12-12v-267c0-6.6,5.4-12,12-12h224.1c6.6,0,12,5.4,12,12v267
	C347.7,701.3,342.3,706.7,335.7,706.7z"/>
<path class="st4" d="M408.7,102.1c0,29.7,4,51.1,10.1,67.7c9.9,26.7,25.3,40.9,38.3,57.1c20.8,25.8,35.4,56.6,11.6,151.8
	c0,0,31.4-73.2,14.5-124.3c-1.9-5.8-4.5-11.4-7.8-16.5C443,187.9,403.4,77,403.4,77L408.7,102.1z"/>
<path class="st1" d="M409.5,104.9c0,29.7,4,51.1,10.1,67.7c9.9,26.7,25.3,40.9,38.3,57.1c20.8,25.8,35.4,56.6,11.6,151.8
	c0,0,31.4-73.2,14.5-124.3c-1.9-5.8-4.5-11.4-7.8-16.5c-32.3-49.9-79.5-162.9-79.5-162.9L409.5,104.9z"/>
</svg>
